<svg xmlns="http://www.w3.org/2000/svg" width="240" height="240" viewBox="0 0 240 240"><rect x="0" y="0" width="240" height="240" rx="55" fill="#4ebb58" /><rect x="28" y="20" width="184" height="150" rx="32" fill="#f0f5df" /><rect x="46" y="42" width="63" height="113" rx="27" fill="#1a1a1a" /><rect x="129" y="42" width="63" height="113" rx="27" fill="#1a1a1a" /><circle cx="54" cy="191" r="4" fill="#2b8133"/><circle cx="74" cy="191" r="4" fill="#2b8133"/><circle cx="94" cy="191" r="4" fill="#2b8133"/><circle cx="114" cy="191" r="4" fill="#2b8133"/><circle cx="134" cy="191" r="4" fill="#2b8133"/><circle cx="154" cy="191" r="4" fill="#2b8133"/><circle cx="174" cy="191" r="4" fill="#2b8133"/><circle cx="54" cy="207" r="4" fill="#2b8133"/><circle cx="74" cy="207" r="4" fill="#2b8133"/><circle cx="94" cy="207" r="4" fill="#2b8133"/><circle cx="114" cy="207" r="4" fill="#2b8133"/><circle cx="134" cy="207" r="4" fill="#2b8133"/><circle cx="154" cy="207" r="4" fill="#2b8133"/><circle cx="174" cy="207" r="4" fill="#2b8133"/></svg>