<svg xmlns="http://www.w3.org/2000/svg" width="1200" height="660" viewBox="0 0 1200 660"><defs><linearGradient id="sky" x2="0" y2="1"><stop stop-color="#5e7594"/><stop offset="1" stop-color="#f3d7b8"/></linearGradient><linearGradient id="violet" x2="1" y2="1"><stop stop-color="#1a1933"/><stop offset="1" stop-color="#403272"/></linearGradient><radialGradient id="orb"><stop stop-color="#ffecc2"/><stop offset=".65" stop-color="#cf9c66"/><stop offset="1" stop-color="#584747"/></radialGradient><linearGradient id="wall" x2="1" y2="1"><stop stop-color="#d9d9d1"/><stop offset="1" stop-color="#a5afad"/></linearGradient></defs><rect x="0" y="0" width="1200" height="660" fill="#15151b" rx="0" /><rect x="0" y="0" width="1200" height="35" fill="#23232c" rx="0" /><text x="55" y="23" fill="#c9c9d2" font-family="Motion Sans" font-size="13" font-weight="600">ATELIER  /  CONCEPT EXPLORER</text><circle cx="15" cy="17" r="4" fill="#ed7775"/><circle cx="28" cy="17" r="4" fill="#e7c866"/><circle cx="41" cy="17" r="4" fill="#82b78a"/><rect x="15" y="50" width="252" height="594" fill="#24242d" rx="8" /><text x="33" y="83" fill="#acbcb3" font-family="Motion Sans" font-size="12" font-weight="600">STORYBOARD</text><rect x="30" y="105" width="219" height="149" fill="#b9cdbb" rx="5" /><text x="45" y="132" fill="#344138" font-family="Motion Sans" font-size="12" font-weight="600">01  /  A</text><rect x="45" y="148" width="150" height="3" fill="#6e8775" rx="0" /><rect x="45" y="161" width="127" height="3" fill="#6e8775" rx="0" /><rect x="45" y="174" width="104" height="3" fill="#6e8775" rx="0" /><rect x="45" y="187" width="145" height="3" fill="#6e8775" rx="0" /><rect x="45" y="200" width="122" height="3" fill="#6e8775" rx="0" /><rect x="30" y="274" width="219" height="149" fill="#b9bcb0" rx="5" /><text x="45" y="301" fill="#344138" font-family="Motion Sans" font-size="12" font-weight="600">02  /  LIGHT,</text><rect x="45" y="317" width="133" height="3" fill="#6e8775" rx="0" /><rect x="45" y="330" width="110" height="3" fill="#6e8775" rx="0" /><rect x="45" y="343" width="87" height="3" fill="#6e8775" rx="0" /><rect x="45" y="356" width="128" height="3" fill="#6e8775" rx="0" /><rect x="45" y="369" width="105" height="3" fill="#6e8775" rx="0" /><rect x="30" y="443" width="219" height="149" fill="#9baca4" rx="5" /><text x="45" y="470" fill="#344138" font-family="Motion Sans" font-size="12" font-weight="600">03  /  SIX</text><rect x="45" y="486" width="116" height="3" fill="#6e8775" rx="0" /><rect x="45" y="499" width="93" height="3" fill="#6e8775" rx="0" /><rect x="45" y="512" width="134" height="3" fill="#6e8775" rx="0" /><rect x="45" y="525" width="111" height="3" fill="#6e8775" rx="0" /><rect x="45" y="538" width="88" height="3" fill="#6e8775" rx="0" /><rect x="283" y="50" width="727" height="496" fill="url(#sky)" rx="8" /><circle cx="839" cy="159" r="52" fill="#eddcb1"/><path d="M283 391L382 272L477 343L592 199L727 337L851 253L1010 382V546H283Z" fill="#929e98"/><path d="M283 432L418 352L542 399L654 303L776 414L1010 358V546H283Z" fill="#738b82"/><ellipse cx="679" cy="380" rx="224" ry="35.0" fill="#6d8071"/><ellipse cx="679" cy="392" rx="216" ry="34.2" fill="#9fa98a"/><ellipse cx="679" cy="404" rx="208" ry="33.4" fill="#c2b68e"/><ellipse cx="679" cy="416" rx="200" ry="32.6" fill="#6d8071"/><ellipse cx="679" cy="428" rx="192" ry="31.8" fill="#9fa98a"/><ellipse cx="679" cy="440" rx="184" ry="31.0" fill="#c2b68e"/><ellipse cx="679" cy="452" rx="176" ry="30.2" fill="#6d8071"/><ellipse cx="679" cy="464" rx="168" ry="29.4" fill="#9fa98a"/><ellipse cx="679" cy="476" rx="160" ry="28.6" fill="#c2b68e"/><ellipse cx="679" cy="488" rx="152" ry="27.8" fill="#6d8071"/><ellipse cx="679" cy="500" rx="144" ry="27.0" fill="#9fa98a"/><ellipse cx="679" cy="512" rx="136" ry="26.2" fill="#c2b68e"/><ellipse cx="683" cy="300" rx="191" ry="62" fill="#4c565a"/><ellipse cx="683" cy="279" rx="191" ry="58" fill="#ded1ae"/><ellipse cx="683" cy="267" rx="165" ry="44" fill="#506468"/><rect x="659" y="297" width="40" height="99" fill="#b7b5a4" rx="0" /><path d="M520 263Q686 179 846 263" stroke="#e7debd" stroke-width="14" fill="none"/><path d="M532 268L533 305" stroke="#4e5b5b" stroke-width="3" fill="none"/><path d="M555 268L556 305" stroke="#4e5b5b" stroke-width="3" fill="none"/><path d="M578 268L579 305" stroke="#4e5b5b" stroke-width="3" fill="none"/><path d="M601 268L602 305" stroke="#4e5b5b" stroke-width="3" fill="none"/><path d="M624 268L625 305" stroke="#4e5b5b" stroke-width="3" fill="none"/><path d="M647 268L648 305" stroke="#4e5b5b" stroke-width="3" fill="none"/><path d="M670 268L671 305" stroke="#4e5b5b" stroke-width="3" fill="none"/><path d="M693 268L694 305" stroke="#4e5b5b" stroke-width="3" fill="none"/><path d="M716 268L717 305" stroke="#4e5b5b" stroke-width="3" fill="none"/><path d="M739 268L740 305" stroke="#4e5b5b" stroke-width="3" fill="none"/><path d="M762 268L763 305" stroke="#4e5b5b" stroke-width="3" fill="none"/><path d="M785 268L786 305" stroke="#4e5b5b" stroke-width="3" fill="none"/><path d="M808 268L809 305" stroke="#4e5b5b" stroke-width="3" fill="none"/><path d="M831 268L832 305" stroke="#4e5b5b" stroke-width="3" fill="none"/><path d="M300 460L300 438" stroke="#536858" stroke-width="3" fill="none"/><circle cx="300" cy="435" r="9" fill="#526d58"/><path d="M427 491L427 469" stroke="#536858" stroke-width="3" fill="none"/><circle cx="427" cy="466" r="9" fill="#526d58"/><path d="M554 522L554 500" stroke="#536858" stroke-width="3" fill="none"/><circle cx="554" cy="497" r="9" fill="#526d58"/><path d="M681 483L681 461" stroke="#536858" stroke-width="3" fill="none"/><circle cx="681" cy="458" r="9" fill="#526d58"/><path d="M808 514L808 492" stroke="#536858" stroke-width="3" fill="none"/><circle cx="808" cy="489" r="9" fill="#526d58"/><path d="M935 475L935 453" stroke="#536858" stroke-width="3" fill="none"/><circle cx="935" cy="450" r="9" fill="#526d58"/><path d="M364 506L364 484" stroke="#536858" stroke-width="3" fill="none"/><circle cx="364" cy="481" r="9" fill="#526d58"/><path d="M491 467L491 445" stroke="#536858" stroke-width="3" fill="none"/><circle cx="491" cy="442" r="9" fill="#526d58"/><path d="M618 498L618 476" stroke="#536858" stroke-width="3" fill="none"/><circle cx="618" cy="473" r="9" fill="#526d58"/><path d="M745 529L745 507" stroke="#536858" stroke-width="3" fill="none"/><circle cx="745" cy="504" r="9" fill="#526d58"/><path d="M872 490L872 468" stroke="#536858" stroke-width="3" fill="none"/><circle cx="872" cy="465" r="9" fill="#526d58"/><path d="M301 521L301 499" stroke="#536858" stroke-width="3" fill="none"/><circle cx="301" cy="496" r="9" fill="#526d58"/><path d="M428 482L428 460" stroke="#536858" stroke-width="3" fill="none"/><circle cx="428" cy="457" r="9" fill="#526d58"/><path d="M555 513L555 491" stroke="#536858" stroke-width="3" fill="none"/><circle cx="555" cy="488" r="9" fill="#526d58"/><path d="M682 474L682 452" stroke="#536858" stroke-width="3" fill="none"/><circle cx="682" cy="449" r="9" fill="#526d58"/><path d="M809 505L809 483" stroke="#536858" stroke-width="3" fill="none"/><circle cx="809" cy="480" r="9" fill="#526d58"/><path d="M936 466L936 444" stroke="#536858" stroke-width="3" fill="none"/><circle cx="936" cy="441" r="9" fill="#526d58"/><path d="M365 497L365 475" stroke="#536858" stroke-width="3" fill="none"/><circle cx="365" cy="472" r="9" fill="#526d58"/><path d="M492 528L492 506" stroke="#536858" stroke-width="3" fill="none"/><circle cx="492" cy="503" r="9" fill="#526d58"/><path d="M619 489L619 467" stroke="#536858" stroke-width="3" fill="none"/><circle cx="619" cy="464" r="9" fill="#526d58"/><path d="M746 520L746 498" stroke="#536858" stroke-width="3" fill="none"/><circle cx="746" cy="495" r="9" fill="#526d58"/><path d="M873 481L873 459" stroke="#536858" stroke-width="3" fill="none"/><circle cx="873" cy="456" r="9" fill="#526d58"/><path d="M302 512L302 490" stroke="#536858" stroke-width="3" fill="none"/><circle cx="302" cy="487" r="9" fill="#526d58"/><path d="M429 473L429 451" stroke="#536858" stroke-width="3" fill="none"/><circle cx="429" cy="448" r="9" fill="#526d58"/><path d="M556 504L556 482" stroke="#536858" stroke-width="3" fill="none"/><circle cx="556" cy="479" r="9" fill="#526d58"/><path d="M683 465L683 443" stroke="#536858" stroke-width="3" fill="none"/><circle cx="683" cy="440" r="9" fill="#526d58"/><path d="M810 496L810 474" stroke="#536858" stroke-width="3" fill="none"/><circle cx="810" cy="471" r="9" fill="#526d58"/><path d="M937 527L937 505" stroke="#536858" stroke-width="3" fill="none"/><circle cx="937" cy="502" r="9" fill="#526d58"/><path d="M366 488L366 466" stroke="#536858" stroke-width="3" fill="none"/><circle cx="366" cy="463" r="9" fill="#526d58"/><rect x="283" y="560" width="727" height="84" fill="#23232d" rx="8" /><text x="304" y="587" fill="#9899a8" font-family="Motion Sans" font-size="16" font-weight="400">Describe a world worth building…</text><rect x="869" y="606" width="120" height="25" fill="#b4c9b4" rx="13" /><text x="893" y="624" fill="#293c30" font-family="Motion Sans" font-size="13" font-weight="600">Generate</text><rect x="1025" y="50" width="160" height="594" fill="#24242d" rx="8" /><text x="1040" y="80" fill="#aaaeba" font-family="Motion Sans" font-size="12" font-weight="600">VARIATIONS</text><rect x="1041" y="96" width="128" height="87" fill="#607878" rx="5" /><circle cx="1106" cy="130" r="22" fill="#e1c9a3"/><rect x="1041" y="199" width="128" height="87" fill="#bda37f" rx="5" /><circle cx="1106" cy="233" r="22" fill="#e3cfaf"/><rect x="1041" y="302" width="128" height="87" fill="#8f9889" rx="5" /><circle cx="1106" cy="336" r="22" fill="#c6cbb5"/><rect x="1041" y="405" width="128" height="87" fill="#576574" rx="5" /><circle cx="1106" cy="439" r="22" fill="#a3b6c9"/><rect x="1041" y="508" width="128" height="87" fill="#798b7b" rx="5" /><circle cx="1106" cy="542" r="22" fill="#d0d7c0"/></svg>