<svg xmlns="http://www.w3.org/2000/svg" width="1200" height="660" viewBox="0 0 1200 660"><defs><linearGradient id="sky" x2="0" y2="1"><stop stop-color="#5e7594"/><stop offset="1" stop-color="#f3d7b8"/></linearGradient><linearGradient id="violet" x2="1" y2="1"><stop stop-color="#1a1933"/><stop offset="1" stop-color="#403272"/></linearGradient><radialGradient id="orb"><stop stop-color="#ffecc2"/><stop offset=".65" stop-color="#cf9c66"/><stop offset="1" stop-color="#584747"/></radialGradient><linearGradient id="wall" x2="1" y2="1"><stop stop-color="#d9d9d1"/><stop offset="1" stop-color="#a5afad"/></linearGradient></defs><rect x="0" y="0" width="1200" height="660" fill="#15151b" rx="0" /><rect x="0" y="0" width="1200" height="35" fill="#23232c" rx="0" /><text x="55" y="23" fill="#c9c9d2" font-family="Motion Sans" font-size="13" font-weight="600">VECTOR  /  LOCAL MODEL LAB</text><circle cx="15" cy="17" r="4" fill="#ed7775"/><circle cx="28" cy="17" r="4" fill="#e7c866"/><circle cx="41" cy="17" r="4" fill="#82b78a"/><rect x="17" y="51" width="332" height="592" fill="#20222d" rx="8" /><text x="39" y="87" fill="#e9e9ef" font-family="Motion Sans" font-size="20" font-weight="600">Model playground</text><rect x="39" y="112" width="287" height="41" fill="#333344" rx="6" /><text x="54" y="138" fill="#bfc6df" font-family="Motion Sans" font-size="15" font-weight="400">Atlas · 32B · local</text><rect x="39" y="180" width="269" height="82" fill="#323044" rx="12" /><text x="54" y="205" fill="#c9c8db" font-family="Motion Sans" font-size="14" font-weight="400">Explore a structure for a</text><text x="54" y="227" fill="#c9c8db" font-family="Motion Sans" font-size="14" font-weight="400">more connected world.</text><rect x="41" y="294" width="245" height="4" fill="#74798e" rx="0" /><rect x="41" y="308" width="208" height="4" fill="#74798e" rx="0" /><rect x="41" y="322" width="171" height="4" fill="#74798e" rx="0" /><rect x="41" y="336" width="229" height="4" fill="#74798e" rx="0" /><rect x="41" y="350" width="192" height="4" fill="#74798e" rx="0" /><rect x="41" y="364" width="155" height="4" fill="#74798e" rx="0" /><rect x="41" y="378" width="213" height="4" fill="#74798e" rx="0" /><rect x="41" y="392" width="176" height="4" fill="#74798e" rx="0" /><rect x="41" y="406" width="234" height="4" fill="#74798e" rx="0" /><rect x="41" y="420" width="197" height="4" fill="#74798e" rx="0" /><rect x="41" y="434" width="160" height="4" fill="#74798e" rx="0" /><rect x="41" y="448" width="218" height="4" fill="#74798e" rx="0" /><rect x="41" y="462" width="181" height="4" fill="#74798e" rx="0" /><rect x="41" y="476" width="239" height="4" fill="#74798e" rx="0" /><rect x="39" y="556" width="287" height="62" fill="#2b2d39" rx="9" /><text x="56" y="593" fill="#959aac" font-family="Motion Sans" font-size="15" font-weight="400">Ask a follow-up…</text><rect x="363" y="51" width="820" height="592" fill="url(#violet)" rx="8" /><text x="395" y="88" fill="#bab4da" font-family="Motion Sans" font-size="12" font-weight="600">EMBEDDING SPACE</text><path d="M834.0 333.0L862.56 360.56" stroke="#777297" stroke-width="0.8" fill="none"/><path d="M834.0 333.0L831.22 398.31" stroke="#777297" stroke-width="0.8" fill="none"/><path d="M824.32 361.69L831.22 398.31" stroke="#777297" stroke-width="0.8" fill="none"/><path d="M824.32 361.69L781.39 415.33" stroke="#777297" stroke-width="0.8" fill="none"/><path d="M798.34 381.27L781.39 415.33" stroke="#777297" stroke-width="0.8" fill="none"/><path d="M798.34 381.27L728.9 406.2" stroke="#777297" stroke-width="0.8" fill="none"/><path d="M764.32 385.53L728.9 406.2" stroke="#777297" stroke-width="0.8" fill="none"/><path d="M764.32 385.53L690.41 373.84" stroke="#777297" stroke-width="0.8" fill="none"/><path d="M733.05 373.11L690.41 373.84" stroke="#777297" stroke-width="0.8" fill="none"/><path d="M733.05 373.11L678.14 328.51" stroke="#777297" stroke-width="0.8" fill="none"/><path d="M714.47 347.95L678.14 328.51" stroke="#777297" stroke-width="0.8" fill="none"/><path d="M714.47 347.95L695.99 284.6" stroke="#777297" stroke-width="0.8" fill="none"/><path d="M714.47 318.05L695.99 284.6" stroke="#777297" stroke-width="0.8" fill="none"/><path d="M714.47 318.05L738.29 256.06" stroke="#777297" stroke-width="0.8" fill="none"/><path d="M733.05 292.89L738.29 256.06" stroke="#777297" stroke-width="0.8" fill="none"/><path d="M733.05 292.89L791.61 251.95" stroke="#777297" stroke-width="0.8" fill="none"/><path d="M764.32 280.47L791.61 251.95" stroke="#777297" stroke-width="0.8" fill="none"/><path d="M764.32 280.47L839.02 273.57" stroke="#777297" stroke-width="0.8" fill="none"/><path d="M798.34 284.73L839.02 273.57" stroke="#777297" stroke-width="0.8" fill="none"/><path d="M798.34 284.73L865.47 314.06" stroke="#777297" stroke-width="0.8" fill="none"/><path d="M824.32 304.31L862.56 360.56" stroke="#777297" stroke-width="0.8" fill="none"/><path d="M824.32 304.31L865.47 314.06" stroke="#777297" stroke-width="0.8" fill="none"/><path d="M862.56 360.56L873.31 403.57" stroke="#777297" stroke-width="0.8" fill="none"/><path d="M862.56 360.56L813.53 439.55" stroke="#777297" stroke-width="0.8" fill="none"/><path d="M831.22 398.31L813.53 439.55" stroke="#777297" stroke-width="0.8" fill="none"/><path d="M831.22 398.31L740.88 441.7" stroke="#777297" stroke-width="0.8" fill="none"/><path d="M781.39 415.33L740.88 441.7" stroke="#777297" stroke-width="0.8" fill="none"/><path d="M781.39 415.33L678.44 409.34" stroke="#777297" stroke-width="0.8" fill="none"/><path d="M728.9 406.2L678.44 409.34" stroke="#777297" stroke-width="0.8" fill="none"/><path d="M728.9 406.2L646.01 352.74" stroke="#777297" stroke-width="0.8" fill="none"/><path d="M690.41 373.84L646.01 352.74" stroke="#777297" stroke-width="0.8" fill="none"/><path d="M690.41 373.84L653.9 289.88" stroke="#777297" stroke-width="0.8" fill="none"/><path d="M678.14 328.51L653.9 289.88" stroke="#777297" stroke-width="0.8" fill="none"/><path d="M678.14 328.51L699.61 240.7" stroke="#777297" stroke-width="0.8" fill="none"/><path d="M695.99 284.6L699.61 240.7" stroke="#777297" stroke-width="0.8" fill="none"/><path d="M695.99 284.6L768.62 220.83" stroke="#777297" stroke-width="0.8" fill="none"/><path d="M738.29 256.06L768.62 220.83" stroke="#777297" stroke-width="0.8" fill="none"/><path d="M738.29 256.06L839.01 236.58" stroke="#777297" stroke-width="0.8" fill="none"/><path d="M791.61 251.95L839.01 236.58" stroke="#777297" stroke-width="0.8" fill="none"/><path d="M791.61 251.95L888.45 282.93" stroke="#777297" stroke-width="0.8" fill="none"/><path d="M839.02 273.57L888.45 282.93" stroke="#777297" stroke-width="0.8" fill="none"/><path d="M839.02 273.57L901.24 345.19" stroke="#777297" stroke-width="0.8" fill="none"/><path d="M865.47 314.06L873.31 403.57" stroke="#777297" stroke-width="0.8" fill="none"/><path d="M865.47 314.06L901.24 345.19" stroke="#777297" stroke-width="0.8" fill="none"/><path d="M873.31 403.57L858.31 453.84" stroke="#777297" stroke-width="0.8" fill="none"/><path d="M873.31 403.57L769.67 474.78" stroke="#777297" stroke-width="0.8" fill="none"/><path d="M813.53 439.55L769.67 474.78" stroke="#777297" stroke-width="0.8" fill="none"/><path d="M813.53 439.55L682.1 450.71" stroke="#777297" stroke-width="0.8" fill="none"/><path d="M740.88 441.7L682.1 450.71" stroke="#777297" stroke-width="0.8" fill="none"/><path d="M740.88 441.7L623.38 389.27" stroke="#777297" stroke-width="0.8" fill="none"/><path d="M678.44 409.34L623.38 389.27" stroke="#777297" stroke-width="0.8" fill="none"/><path d="M678.44 409.34L612.17 309.96" stroke="#777297" stroke-width="0.8" fill="none"/><path d="M646.01 352.74L612.17 309.96" stroke="#777297" stroke-width="0.8" fill="none"/><path d="M646.01 352.74L652.02 237.97" stroke="#777297" stroke-width="0.8" fill="none"/><path d="M653.9 289.88L652.02 237.97" stroke="#777297" stroke-width="0.8" fill="none"/><path d="M653.9 289.88L730.28 196.15" stroke="#777297" stroke-width="0.8" fill="none"/><path d="M699.61 240.7L730.28 196.15" stroke="#777297" stroke-width="0.8" fill="none"/><path d="M699.61 240.7L822.1 197.78" stroke="#777297" stroke-width="0.8" fill="none"/><path d="M768.62 220.83L822.1 197.78" stroke="#777297" stroke-width="0.8" fill="none"/><path d="M768.62 220.83L898.34 242.34" stroke="#777297" stroke-width="0.8" fill="none"/><path d="M839.01 236.58L898.34 242.34" stroke="#777297" stroke-width="0.8" fill="none"/><path d="M839.01 236.58L934.78 315.69" stroke="#777297" stroke-width="0.8" fill="none"/><path d="M888.45 282.93L934.78 315.69" stroke="#777297" stroke-width="0.8" fill="none"/><path d="M888.45 282.93L919.86 394.53" stroke="#777297" stroke-width="0.8" fill="none"/><path d="M901.24 345.19L858.31 453.84" stroke="#777297" stroke-width="0.8" fill="none"/><path d="M901.24 345.19L919.86 394.53" stroke="#777297" stroke-width="0.8" fill="none"/><path d="M858.31 453.84L814.22 500.6" stroke="#777297" stroke-width="0.8" fill="none"/><path d="M858.31 453.84L703.53 493.38" stroke="#777297" stroke-width="0.8" fill="none"/><path d="M769.67 474.78L703.53 493.38" stroke="#777297" stroke-width="0.8" fill="none"/><path d="M769.67 474.78L614.89 435.24" stroke="#777297" stroke-width="0.8" fill="none"/><path d="M682.1 450.71L614.89 435.24" stroke="#777297" stroke-width="0.8" fill="none"/><path d="M682.1 450.71L576.46 344.64" stroke="#777297" stroke-width="0.8" fill="none"/><path d="M623.38 389.27L576.46 344.64" stroke="#777297" stroke-width="0.8" fill="none"/><path d="M623.38 389.27L600.42 250.35" stroke="#777297" stroke-width="0.8" fill="none"/><path d="M612.17 309.96L600.42 250.35" stroke="#777297" stroke-width="0.8" fill="none"/><path d="M612.17 309.96L679.18 182.3" stroke="#777297" stroke-width="0.8" fill="none"/><path d="M652.02 237.97L679.18 182.3" stroke="#777297" stroke-width="0.8" fill="none"/><path d="M652.02 237.97L787.72 162.09" stroke="#777297" stroke-width="0.8" fill="none"/><path d="M730.28 196.15L787.72 162.09" stroke="#777297" stroke-width="0.8" fill="none"/><path d="M730.28 196.15L891.59 196.15" stroke="#777297" stroke-width="0.8" fill="none"/><path d="M822.1 197.78L891.59 196.15" stroke="#777297" stroke-width="0.8" fill="none"/><path d="M822.1 197.78L957.81 273.65" stroke="#777297" stroke-width="0.8" fill="none"/><path d="M898.34 242.34L957.81 273.65" stroke="#777297" stroke-width="0.8" fill="none"/><path d="M898.34 242.34L965.35 370.0" stroke="#777297" stroke-width="0.8" fill="none"/><path d="M934.78 315.69L965.35 370.0" stroke="#777297" stroke-width="0.8" fill="none"/><path d="M934.78 315.69L911.83 454.6" stroke="#777297" stroke-width="0.8" fill="none"/><path d="M919.86 394.53L814.22 500.6" stroke="#777297" stroke-width="0.8" fill="none"/><path d="M919.86 394.53L911.83 454.6" stroke="#777297" stroke-width="0.8" fill="none"/><path d="M814.22 500.6L743.24 532.29" stroke="#777297" stroke-width="0.8" fill="none"/><path d="M814.22 500.6L624.11 486.66" stroke="#777297" stroke-width="0.8" fill="none"/><path d="M703.53 493.38L624.11 486.66" stroke="#777297" stroke-width="0.8" fill="none"/><path d="M703.53 493.38L552.26 392.24" stroke="#777297" stroke-width="0.8" fill="none"/><path d="M614.89 435.24L552.26 392.24" stroke="#777297" stroke-width="0.8" fill="none"/><path d="M614.89 435.24L550.49 279.01" stroke="#777297" stroke-width="0.8" fill="none"/><path d="M576.46 344.64L550.49 279.01" stroke="#777297" stroke-width="0.8" fill="none"/><path d="M576.46 344.64L619.37 182.92" stroke="#777297" stroke-width="0.8" fill="none"/><path d="M600.42 250.35L619.37 182.92" stroke="#777297" stroke-width="0.8" fill="none"/><path d="M600.42 250.35L737.02 134.48" stroke="#777297" stroke-width="0.8" fill="none"/><path d="M679.18 182.3L737.02 134.48" stroke="#777297" stroke-width="0.8" fill="none"/><path d="M679.18 182.3L866.1 149.07" stroke="#777297" stroke-width="0.8" fill="none"/><path d="M787.72 162.09L866.1 149.07" stroke="#777297" stroke-width="0.8" fill="none"/><path d="M787.72 162.09L965.61 222.06" stroke="#777297" stroke-width="0.8" fill="none"/><path d="M891.59 196.15L965.61 222.06" stroke="#777297" stroke-width="0.8" fill="none"/><path d="M891.59 196.15L1003.98 330.27" stroke="#777297" stroke-width="0.8" fill="none"/><path d="M957.81 273.65L1003.98 330.27" stroke="#777297" stroke-width="0.8" fill="none"/><path d="M957.81 273.65L969.01 439.34" stroke="#777297" stroke-width="0.8" fill="none"/><path d="M965.35 370.0L969.01 439.34" stroke="#777297" stroke-width="0.8" fill="none"/><path d="M965.35 370.0L871.81 514.66" stroke="#777297" stroke-width="0.8" fill="none"/><path d="M911.83 454.6L743.24 532.29" stroke="#777297" stroke-width="0.8" fill="none"/><path d="M911.83 454.6L871.81 514.66" stroke="#777297" stroke-width="0.8" fill="none"/><circle cx="834.0" cy="333.0" r="3.0" fill="#a1d2ce"/><circle cx="824.32" cy="361.69" r="4.2" fill="#e4c6e6"/><circle cx="798.34" cy="381.27" r="5.4" fill="#b8a3e0"/><circle cx="764.32" cy="385.53" r="3.0" fill="#a1d2ce"/><circle cx="733.05" cy="373.11" r="4.2" fill="#e4c6e6"/><circle cx="714.47" cy="347.95" r="5.4" fill="#b8a3e0"/><circle cx="714.47" cy="318.05" r="3.0" fill="#a1d2ce"/><circle cx="733.05" cy="292.89" r="4.2" fill="#e4c6e6"/><circle cx="764.32" cy="280.47" r="5.4" fill="#b8a3e0"/><circle cx="798.34" cy="284.73" r="3.0" fill="#a1d2ce"/><circle cx="824.32" cy="304.31" r="4.2" fill="#e4c6e6"/><circle cx="862.56" cy="360.56" r="3.0" fill="#a1d2ce"/><circle cx="831.22" cy="398.31" r="4.2" fill="#e4c6e6"/><circle cx="781.39" cy="415.33" r="5.4" fill="#b8a3e0"/><circle cx="728.9" cy="406.2" r="3.0" fill="#a1d2ce"/><circle cx="690.41" cy="373.84" r="4.2" fill="#e4c6e6"/><circle cx="678.14" cy="328.51" r="5.4" fill="#b8a3e0"/><circle cx="695.99" cy="284.6" r="3.0" fill="#a1d2ce"/><circle cx="738.29" cy="256.06" r="4.2" fill="#e4c6e6"/><circle cx="791.61" cy="251.95" r="5.4" fill="#b8a3e0"/><circle cx="839.02" cy="273.57" r="3.0" fill="#a1d2ce"/><circle cx="865.47" cy="314.06" r="4.2" fill="#e4c6e6"/><circle cx="873.31" cy="403.57" r="3.0" fill="#a1d2ce"/><circle cx="813.53" cy="439.55" r="4.2" fill="#e4c6e6"/><circle cx="740.88" cy="441.7" r="5.4" fill="#b8a3e0"/><circle cx="678.44" cy="409.34" r="3.0" fill="#a1d2ce"/><circle cx="646.01" cy="352.74" r="4.2" fill="#e4c6e6"/><circle cx="653.9" cy="289.88" r="5.4" fill="#b8a3e0"/><circle cx="699.61" cy="240.7" r="3.0" fill="#a1d2ce"/><circle cx="768.62" cy="220.83" r="4.2" fill="#e4c6e6"/><circle cx="839.01" cy="236.58" r="5.4" fill="#b8a3e0"/><circle cx="888.45" cy="282.93" r="3.0" fill="#a1d2ce"/><circle cx="901.24" cy="345.19" r="4.2" fill="#e4c6e6"/><circle cx="858.31" cy="453.84" r="3.0" fill="#a1d2ce"/><circle cx="769.67" cy="474.78" r="4.2" fill="#e4c6e6"/><circle cx="682.1" cy="450.71" r="5.4" fill="#b8a3e0"/><circle cx="623.38" cy="389.27" r="3.0" fill="#a1d2ce"/><circle cx="612.17" cy="309.96" r="4.2" fill="#e4c6e6"/><circle cx="652.02" cy="237.97" r="5.4" fill="#b8a3e0"/><circle cx="730.28" cy="196.15" r="3.0" fill="#a1d2ce"/><circle cx="822.1" cy="197.78" r="4.2" fill="#e4c6e6"/><circle cx="898.34" cy="242.34" r="5.4" fill="#b8a3e0"/><circle cx="934.78" cy="315.69" r="3.0" fill="#a1d2ce"/><circle cx="919.86" cy="394.53" r="4.2" fill="#e4c6e6"/><circle cx="814.22" cy="500.6" r="3.0" fill="#a1d2ce"/><circle cx="703.53" cy="493.38" r="4.2" fill="#e4c6e6"/><circle cx="614.89" cy="435.24" r="5.4" fill="#b8a3e0"/><circle cx="576.46" cy="344.64" r="3.0" fill="#a1d2ce"/><circle cx="600.42" cy="250.35" r="4.2" fill="#e4c6e6"/><circle cx="679.18" cy="182.3" r="5.4" fill="#b8a3e0"/><circle cx="787.72" cy="162.09" r="3.0" fill="#a1d2ce"/><circle cx="891.59" cy="196.15" r="4.2" fill="#e4c6e6"/><circle cx="957.81" cy="273.65" r="5.4" fill="#b8a3e0"/><circle cx="965.35" cy="370.0" r="3.0" fill="#a1d2ce"/><circle cx="911.83" cy="454.6" r="4.2" fill="#e4c6e6"/><circle cx="743.24" cy="532.29" r="3.0" fill="#a1d2ce"/><circle cx="624.11" cy="486.66" r="4.2" fill="#e4c6e6"/><circle cx="552.26" cy="392.24" r="5.4" fill="#b8a3e0"/><circle cx="550.49" cy="279.01" r="3.0" fill="#a1d2ce"/><circle cx="619.37" cy="182.92" r="4.2" fill="#e4c6e6"/><circle cx="737.02" cy="134.48" r="5.4" fill="#b8a3e0"/><circle cx="866.1" cy="149.07" r="3.0" fill="#a1d2ce"/><circle cx="965.61" cy="222.06" r="4.2" fill="#e4c6e6"/><circle cx="1003.98" cy="330.27" r="5.4" fill="#b8a3e0"/><circle cx="969.01" cy="439.34" r="3.0" fill="#a1d2ce"/><circle cx="871.81" cy="514.66" r="4.2" fill="#e4c6e6"/><circle cx="773" cy="333" r="29" fill="#e0d0e9"/><text x="753" y="338" fill="#3e3358" font-family="Motion Sans" font-size="15" font-weight="600">32B</text><rect x="396" y="580" width="227" height="32" fill="#53506a" rx="16" /><text x="411" y="601" fill="#ded8e7" font-family="Motion Sans" font-size="13" font-weight="400">Private · On device · In flow</text></svg>